<?xml version="1.0" standalone="no"?>
<!DOCTYPE svg PUBLIC "-//W3C//DTD SVG 20010904//EN"
 "http://www.w3.org/TR/2001/REC-SVG-20010904/DTD/svg10.dtd">
<svg version="1.0" xmlns="http://www.w3.org/2000/svg"
 width="1280.000000pt" height="640.000000pt" viewBox="0 0 1280.000000 640.000000"
 preserveAspectRatio="xMidYMid meet">
<metadata>
Created by potrace 1.15, written by Peter Selinger 2001-2017
</metadata>
<g transform="translate(0.000000,640.000000) scale(0.100000,-0.100000)"
fill="#000000" stroke="none">
<path d="M8943 4540 c0 -25 2 -35 4 -22 2 12 2 32 0 45 -2 12 -4 2 -4 -23z"/>
<path d="M8921 4270 c-2 -124 -7 -290 -11 -370 -6 -116 -7 -84 -6 165 1 171
-2 279 -6 240 -7 -70 -28 -480 -35 -692 -2 -62 -8 -113 -13 -113 -10 0 -19
-49 -29 -155 -5 -52 -8 -65 -9 -37 -3 66 -22 49 -23 -20 -1 -70 -4 -68 -14 7
-6 39 -9 46 -16 30 -6 -16 -8 -11 -9 20 -2 34 -3 37 -9 15 l-8 -25 -5 25 -5
25 -8 -23 c-6 -18 -10 -20 -16 -10 -5 8 -9 -23 -10 -77 -2 -81 -3 -73 -14 75
-7 91 -13 142 -13 113 -3 -86 -22 -74 -22 14 0 109 -19 134 -21 28 l-2 -80 -8
90 c-5 50 -9 167 -8 260 0 94 -4 233 -8 310 -8 134 -9 125 -15 -190 -4 -181
-11 -348 -16 -370 -8 -38 -9 -35 -16 45 -4 47 -6 128 -5 180 2 52 2 140 0 195
l-4 100 -9 -110 c-4 -60 -12 -202 -16 -315 -5 -113 -9 -185 -10 -160 -1 25 -6
51 -11 58 -4 7 -11 -74 -14 -184 -4 -113 -11 -202 -17 -208 -7 -7 -10 -5 -10
7 0 23 -11 21 -43 -8 l-27 -26 0 23 c0 16 -3 19 -9 10 -7 -11 -9 -11 -14 2 -4
9 -13 13 -22 10 -9 -4 -15 -1 -15 8 0 8 -7 23 -15 34 -13 18 -14 18 -21 -13
-7 -36 -29 -50 -39 -25 -6 15 -8 15 -21 -2 -13 -19 -14 -18 -14 15 l-1 34 -14
-25 c-14 -24 -14 -23 -16 30 -1 46 -3 50 -9 25 -5 -21 -8 -24 -9 -9 0 11 -8
29 -16 40 -13 18 -14 16 -16 -21 -1 -34 -2 -36 -9 -15 -7 24 -7 23 -12 -10
l-5 -35 -2 35 c-3 33 -4 33 -11 10 l-8 -25 -2 25 -2 25 -7 -25 c-6 -21 -10
-14 -21 40 l-14 65 -7 -50 c-6 -50 -6 -50 -8 -10 -2 32 -4 36 -11 20 -6 -16
-9 -12 -12 20 l-4 40 -11 -35 -11 -35 -2 55 c-1 39 -4 49 -9 35 -5 -12 -10 25
-12 97 -3 75 -9 122 -17 130 -9 9 -12 2 -13 -37 -1 -44 -2 -46 -9 -20 -4 17
-9 26 -11 20 -1 -5 -5 24 -9 65 l-6 75 -4 -100 c-2 -71 -5 -90 -10 -65 -7 39
-17 26 -22 -30 -2 -19 -8 17 -14 80 l-11 115 -2 -100 c-1 -55 -6 -107 -11
-115 -8 -12 -10 -10 -11 10 -1 28 -9 0 -28 -104 -6 -32 -13 -61 -16 -64 -3 -3
-5 29 -5 71 0 45 -4 77 -10 77 -6 0 -10 -26 -10 -59 0 -43 -4 -60 -15 -65 -12
-4 -15 5 -16 47 l-1 52 -13 -35 c-13 -34 -14 -34 -14 -7 -1 15 -5 27 -10 27
-5 0 -13 30 -18 68 l-10 67 -2 -72 c0 -40 -5 -73 -10 -73 -5 0 -12 -8 -14 -17
-3 -13 -5 -12 -6 5 0 13 -5 20 -11 17 -6 -4 -10 28 -11 87 l-2 93 -8 -84 c-4
-46 -12 -87 -17 -90 -5 -3 -13 -19 -17 -36 l-9 -30 -4 30 c-2 17 -9 36 -14 43
-13 15 -37 182 -38 256 0 42 -2 47 -15 36 -13 -11 -15 -6 -16 31 -1 24 -5 -5
-10 -66 -17 -243 -31 -364 -43 -359 -11 4 -36 92 -36 127 0 9 -4 17 -9 17 -11
0 -21 -50 -21 -106 0 -23 -6 -49 -13 -56 -8 -7 -16 -20 -20 -28 -4 -12 -6 -12
-6 -1 -1 8 -9 19 -18 26 -14 11 -20 10 -30 -4 -10 -13 -13 -6 -14 44 -1 55 -2
57 -9 22 -9 -48 -20 -59 -21 -21 l0 29 -12 -25 c-10 -23 -12 -20 -17 35 -6 64
-16 51 -23 -30 -3 -35 -4 -33 -5 13 -3 73 -22 65 -23 -10 -2 -58 -2 -60 -9
-23 l-7 40 -2 -35 c-2 -47 -21 -77 -21 -35 0 23 -3 27 -10 15 -8 -12 -10 -11
-10 7 0 30 -18 38 -23 11 -2 -13 -5 -3 -6 22 -2 61 -19 40 -24 -30 -3 -49 -3
-47 -5 19 -2 81 -12 87 -23 13 l-6 -47 -2 45 c-4 86 -19 90 -22 5 l-3 -80 -3
70 c-4 91 -15 114 -23 50 -7 -48 -7 -47 -8 23 -1 40 -6 71 -11 68 -5 -3 -12
24 -16 61 -4 37 -10 61 -15 54 -4 -7 -11 19 -16 61 l-9 73 -5 -100 c-4 -78 -7
-90 -11 -55 -4 36 -6 28 -8 -40 -2 -47 -6 -112 -10 -145 l-7 -60 -7 65 c-4 36
-9 79 -10 95 -2 17 -5 -7 -6 -52 -1 -75 -11 -104 -24 -70 -4 9 -6 9 -6 -1 -1
-21 -28 -45 -34 -29 -2 6 -7 -27 -10 -74 -8 -101 -17 -149 -27 -149 -4 0 -10
9 -13 20 -7 26 -21 25 -35 -2 -9 -19 -11 -20 -11 -5 -1 10 -5 15 -11 12 -5 -3
-10 2 -10 12 0 15 -2 16 -10 3 -7 -11 -10 -7 -10 18 0 26 -4 32 -17 30 -12 -2
-19 6 -24 27 -4 17 -7 26 -8 20 -1 -5 -10 4 -21 20 l-20 30 -1 -25 c-1 -18 -5
-13 -14 20 -7 25 -14 38 -15 30 -6 -44 -17 46 -13 105 3 51 2 66 -6 55 -6 -8
-11 -37 -12 -65 l-2 -50 -7 45 -6 45 -9 -42 c-8 -48 -25 -58 -25 -16 0 61 -13
7 -20 -84 l-7 -98 -3 80 -2 80 -14 -60 c-7 -33 -13 -95 -14 -137 0 -80 -8 -99
-31 -72 -12 14 -14 14 -20 -3 -7 -15 -8 -14 -10 7 -1 18 -4 14 -9 -15 l-7 -40
-3 45 -3 45 -7 -35 c-7 -32 -8 -29 -10 25 l-3 60 -7 -55 c-6 -52 -7 -53 -10
-15 l-3 40 -7 -35 -7 -35 -3 30 -3 30 -7 -35 -7 -35 -3 30 -2 30 -8 -30 c-7
-29 -8 -29 -10 10 l-3 40 -7 -40 -7 -40 -3 40 -3 40 -7 -35 c-7 -33 -8 -31
-10 20 -2 47 -3 51 -10 25 -7 -28 -8 -29 -10 -5 l-2 25 -8 -25 c-7 -20 -8 -16
-10 25 l-2 50 -10 -37 c-9 -32 -13 -36 -28 -28 -15 8 -19 6 -23 -13 -3 -13 -5
-6 -6 18 -2 32 -4 36 -11 20 -6 -14 -9 -16 -11 -5 -1 8 -5 -1 -9 -20 -6 -28
-8 -19 -10 45 l-4 80 -6 -70 c-4 -42 -7 -56 -9 -35 -2 28 -4 31 -10 15 -7 -18
-9 -17 -24 10 l-16 30 -2 -30 c-1 -17 -3 -23 -6 -12 -2 9 -9 17 -14 17 -5 0
-10 24 -11 53 l-1 52 -7 -65 -7 -65 -2 75 c-3 58 -5 68 -11 45 -5 -21 -8 -2
-9 62 -1 95 -20 144 -22 56 0 -26 -4 -70 -9 -98 l-7 -50 -3 65 c-1 36 -5 88
-10 115 -6 44 -8 37 -9 -49 0 -55 -4 -97 -7 -93 -3 3 -12 79 -19 169 l-12 163
-3 -135 c-2 -140 -16 -233 -20 -135 -3 74 -17 20 -20 -75 -2 -84 -10 -122 -25
-120 -5 0 -11 -20 -13 -45 -4 -54 -21 -60 -24 -7 l-1 37 -4 -35 c-5 -36 -23
-67 -23 -39 0 9 -7 30 -16 47 -13 27 -18 30 -40 22 -22 -9 -24 -7 -25 18 l-1
27 -7 -25 c-6 -22 -8 -23 -14 -7 -4 10 -7 37 -7 58 0 24 -4 38 -10 34 -6 -4
-10 16 -10 54 0 38 -4 61 -12 63 -8 3 -15 32 -19 74 l-6 69 -3 -70 c-3 -57 -5
-45 -10 60 l-6 130 -2 -145 c-3 -168 -21 -230 -23 -80 -2 85 -3 89 -9 40 -4
-30 -8 -48 -10 -40 -1 8 -6 -1 -10 -20 -5 -24 -8 5 -10 90 -2 88 -5 112 -10
80 -6 -42 -6 -43 -12 -15 -4 24 -5 21 -7 -17 -2 -81 -15 -89 -22 -13 -5 65 -6
61 -9 -45 -2 -77 -5 -102 -9 -75 -6 37 -7 36 -14 -30 -4 -38 -7 -106 -8 -150
-1 -76 -15 -210 -18 -173 0 10 -4 17 -8 17 -34 -5 -43 3 -45 39 -1 34 -2 33
-8 -13 -5 -38 -8 -43 -10 -20 l-3 30 -7 -35 c-6 -27 -8 -14 -10 55 l-4 90 -5
-75 c-5 -67 -7 -71 -15 -41 -6 24 -11 30 -16 20 -6 -8 -10 7 -13 41 l-3 55 -4
-55 -3 -55 -7 60 -7 60 -1 -63 c-1 -39 -6 -61 -12 -57 -5 3 -11 16 -11 28 -1
17 -3 15 -9 -8 -5 -19 -9 23 -11 115 l-3 145 -6 -140 c-4 -101 -7 -122 -10
-75 l-4 65 -6 -75 c-4 -41 -7 -58 -8 -37 -2 38 -17 50 -25 20 -3 -10 -6 18 -8
62 l-3 80 -6 -85 -6 -85 -4 85 -4 85 -5 -105 -6 -105 -10 115 -10 115 -3 -93
c-2 -68 -6 -92 -15 -89 -8 2 -14 49 -17 153 l-6 149 -2 -128 c-2 -114 -4 -127
-17 -113 -8 8 -15 30 -16 48 0 18 -4 42 -9 53 -7 16 -9 12 -11 -20 l-2 -40 -7
45 c-4 25 -8 36 -9 25 -1 -11 -8 -29 -16 -39 -14 -18 -15 -14 -16 50 -1 38 -4
60 -7 49 -4 -11 -15 -21 -24 -21 -14 -1 -18 6 -19 30 l-1 31 -8 -30 c-7 -28
-8 -29 -10 -5 -1 23 -2 23 -10 5 -7 -17 -9 -15 -9 13 -1 17 -5 32 -11 32 -5 0
-10 17 -10 39 0 21 -3 54 -7 72 -7 31 -9 27 -16 -36 -4 -38 -11 -113 -16 -165
-4 -52 -8 -80 -9 -62 -4 60 -19 33 -24 -41 -4 -58 -9 -78 -26 -95 -29 -29 -32
-28 -33 11 l-1 32 -8 -30 c-7 -28 -8 -28 -9 -5 l-2 25 -14 -25 -14 -25 -2 30
c-2 30 -2 30 -9 -5 l-7 -35 -2 37 c-1 35 -21 67 -21 34 0 -33 -19 -14 -23 22
-3 26 -4 20 -5 -23 -3 -72 -22 -57 -22 17 0 41 -2 46 -20 43 -17 -3 -20 2 -21
33 -1 33 -2 34 -9 12 -6 -19 -8 -11 -10 35 -1 43 -4 54 -10 40 -5 -13 -9 31
-11 120 -1 100 -4 124 -8 83 -8 -72 -30 -101 -33 -42 -1 21 -5 -10 -8 -71 -6
-108 -6 -106 -8 58 -2 163 -13 214 -26 121 -3 -26 -7 -128 -7 -228 -1 -100 -4
-167 -6 -151 -9 60 -21 45 -28 -36 -4 -48 -13 -89 -21 -97 -12 -11 -14 -10
-14 12 0 32 -20 35 -21 4 0 -22 -1 -22 -9 -3 -7 17 -9 17 -9 3 -1 -24 -29 -12
-34 15 -3 15 -5 11 -7 -13 -3 -32 -4 -30 -10 15 l-7 50 -1 -43 c-2 -39 -4 -42
-17 -28 -8 8 -16 25 -16 38 -1 19 -3 18 -9 -7 l-8 -30 -2 30 c-3 25 -4 23 -10
-15 l-7 -45 -2 45 c-2 35 -4 40 -10 21 -9 -33 -28 -37 -36 -10 -7 22 -8 22
-21 4 -13 -17 -14 -16 -15 16 0 20 -3 28 -7 19 -12 -26 -31 -21 -49 13 l-18
32 -3 -37 c-4 -45 -20 -50 -28 -8 -4 16 -10 27 -15 24 -5 -3 -10 7 -10 23 -2
26 -2 25 -9 -7 -4 -19 -8 -29 -9 -22 0 7 -5 10 -11 7 -6 -4 -10 8 -10 30 0 22
-4 34 -10 30 -5 -3 -11 2 -12 12 -1 10 -4 -9 -8 -42 l-7 -60 -2 60 c-2 47 -5
54 -11 35 -7 -22 -8 -20 -9 15 -1 30 -4 36 -11 25 -8 -12 -10 -8 -11 15 -1 20
-3 23 -6 10 -2 -11 -8 -29 -13 -40 -5 -11 -11 -27 -13 -35 -3 -8 -6 3 -8 25
-1 23 -3 31 -6 18 -6 -33 -33 -17 -33 20 0 38 -17 25 -22 -18 -5 -40 -14 -17
-24 60 l-8 60 -7 -40 c-3 -22 -7 -32 -8 -22 -2 24 -21 22 -21 -3 0 -11 -8 -28
-19 -39 -10 -10 -21 -41 -25 -72 -10 -74 -17 -99 -27 -99 -5 0 -9 8 -10 18 -1
11 -4 9 -9 -8 -8 -25 -8 -25 -10 5 -1 17 -4 23 -7 13 -2 -9 -10 -15 -18 -12
-7 3 -15 -3 -18 -13 -3 -12 -5 -9 -6 9 -2 40 -21 45 -22 6 l-1 -33 -10 35 c-5
19 -14 39 -19 44 -5 6 -9 43 -9 82 0 40 -5 76 -10 79 -6 3 -10 23 -11 43 l-1
37 -12 -45 -11 -45 -3 75 c-3 90 -9 123 -22 115 -6 -4 -10 28 -10 82 0 48 -5
95 -10 103 -7 10 -10 -23 -11 -105 l-1 -120 -13 55 c-11 46 -13 50 -14 22 -1
-19 -5 -31 -11 -27 -6 4 -10 -32 -10 -102 0 -154 -11 -272 -24 -270 -6 1 -15
-17 -20 -40 -6 -24 -13 -43 -18 -43 -4 0 -8 -8 -9 -17 0 -10 -3 -13 -5 -6 -3
7 -12 9 -20 6 -8 -3 -14 1 -14 10 0 8 -11 18 -25 21 -18 5 -25 13 -25 29 0 13
-7 32 -15 43 -8 10 -15 28 -15 39 -1 17 -3 17 -13 -5 l-11 -25 -4 32 c-4 36
-25 49 -46 28 -12 -13 -15 -11 -20 9 -4 17 -11 23 -24 19 -15 -4 -21 4 -28 39
l-10 43 -13 -60 c-7 -33 -16 -88 -20 -123 -9 -69 -21 -94 -21 -44 0 37 -15 49
-29 25 -8 -14 -10 -5 -11 40 0 32 -4 56 -9 53 -8 -5 -14 15 -28 93 -3 21 -8
29 -13 21 -5 -8 -12 14 -18 51 -9 63 -9 63 -12 -56 -2 -117 -3 -119 -13 -65
l-11 55 -6 -55 -5 -55 -13 40 c-6 22 -13 54 -15 70 -2 17 -7 -1 -12 -45 -8
-64 -10 -70 -15 -40 l-6 35 -8 -30 c-4 -16 -9 -34 -10 -40 -2 -5 -6 48 -10
120 -4 71 -10 134 -14 139 -11 18 -31 -91 -32 -174 -1 -78 -27 -238 -29 -180
-1 14 -5 32 -11 40 -10 16 -15 8 -23 -40 -4 -20 -5 -19 -6 8 0 17 -5 32 -11
32 -5 0 -10 -15 -11 -32 -1 -31 -1 -32 -9 -8 -4 14 -8 42 -9 62 -1 50 -21 60
-22 11 0 -21 -4 -47 -9 -58 -7 -17 -9 -16 -10 10 -2 22 -4 24 -7 10 -13 -52
-22 -27 -29 82 -7 108 -9 113 -15 62 -11 -95 -32 -107 -44 -26 -6 37 -10 45
-13 27 -4 -22 -7 -20 -27 25 l-23 50 -1 -55 c-1 -63 -21 -51 -21 13 0 24 -5
40 -15 43 -8 4 -15 14 -16 23 0 12 -2 12 -9 -4 -8 -19 -9 -18 -11 5 -3 37 -17
-131 -19 -235 -1 -86 -26 -203 -30 -145 -1 23 -2 23 -10 5 -7 -17 -9 -16 -10
10 -1 26 -3 27 -10 10 l-9 -20 -1 20 c-2 17 -3 16 -10 -5 -7 -21 -8 -22 -9 -5
-1 17 -3 17 -11 5 -8 -12 -10 -12 -11 5 l0 20 -9 -20 -9 -20 -1 20 c-1 19 -2
19 -9 2 -6 -17 -8 -17 -20 -3 -18 22 -29 20 -34 -6 -2 -13 -6 4 -7 37 l-3 60
-7 -45 c-4 -25 -8 -38 -9 -30 -1 13 -2 13 -11 0 -9 -13 -10 -13 -10 0 0 13 -1
13 -10 0 -7 -11 -10 -7 -11 20 l-2 35 -7 -40 -7 -40 -3 50 c-2 32 -4 41 -8 25
-4 -23 -5 -24 -13 -5 -7 18 -8 17 -8 -6 -1 -16 -7 -26 -16 -26 -11 0 -15 13
-16 51 l-2 51 -7 -40 -7 -40 -2 35 -3 35 -13 -35 -13 -35 -3 65 c-2 58 -3 60
-6 18 -5 -57 -18 -62 -28 -11 -4 25 -9 32 -15 23 -6 -10 -9 -9 -14 6 -3 10 -3
1 -1 -20 4 -39 -9 -40 -18 -1 -4 17 -5 16 -6 -5 l-1 -25 -15 29 c-9 18 -15 59
-16 110 -1 56 -3 73 -9 56 l-8 -25 -2 25 c-2 24 -3 23 -10 -5 -6 -25 -8 -20
-11 30 -3 59 -3 59 -6 13 -2 -27 -8 -48 -12 -48 -5 0 -13 24 -18 53 l-10 52
-3 -60 -3 -60 -7 60 -7 60 -1 -49 c-2 -46 -3 -48 -17 -30 -14 18 -14 18 -15
-9 0 -16 -4 -26 -9 -23 -4 3 -11 -22 -14 -57 -3 -34 -10 -63 -16 -65 -6 -2
-11 -29 -12 -60 0 -31 -4 -66 -9 -77 -8 -20 -8 -20 -16 2 -5 12 -13 22 -19 22
-5 0 -12 17 -15 38 -4 30 -7 34 -13 19 -4 -10 -10 -16 -14 -13 -3 4 -12 2 -20
-4 -10 -9 -13 -3 -14 32 l-2 44 -7 -35 -7 -35 -2 45 c-2 25 -6 65 -10 90 l-8
45 -3 -40 c-3 -35 -4 -36 -7 -11 -4 22 -7 26 -14 15 -6 -10 -9 -6 -9 14 0 16
-6 35 -14 43 -13 12 -15 9 -19 -23 l-4 -38 -1 36 c-2 45 -31 63 -33 21 -2 -21
-4 -18 -9 13 l-7 40 -2 -38 c-1 -30 -6 -40 -21 -44 -15 -4 -20 -14 -21 -42 -1
-32 -2 -33 -8 -11 -7 22 -9 19 -16 -24 -9 -56 -24 -45 -26 19 0 22 -5 51 -9
65 -5 16 -9 -11 -10 -80 -2 -116 -17 -184 -20 -90 -2 30 -6 69 -9 85 -6 26 -8
21 -15 -32 -4 -35 -11 -61 -16 -58 -4 2 -10 -13 -14 -35 -3 -22 -11 -40 -16
-40 -6 0 -10 -8 -11 -17 0 -10 -7 2 -14 27 -7 25 -17 56 -22 69 -9 23 -11 21
-22 -23 -11 -44 -31 -55 -31 -18 -1 9 -10 28 -21 42 -20 24 -21 24 -35 5 -10
-13 -14 -15 -14 -4 0 28 -20 -15 -21 -46 0 -17 -3 -23 -6 -15 -4 8 -12 20 -18
25 -7 6 -15 22 -19 36 -8 36 -36 34 -36 -3 0 -32 -27 -49 -41 -27 -5 8 -9 26
-9 41 0 15 -4 30 -10 33 -6 4 -10 -10 -10 -34 0 -23 -4 -41 -10 -41 -5 0 -10
12 -10 28 0 25 -19 68 -21 47 -2 -27 -18 36 -18 75 -1 33 -4 41 -11 30 -7 -11
-10 -2 -10 32 0 38 -4 50 -21 59 -17 9 -23 8 -30 -2 -5 -9 -9 26 -9 85 0 84
-2 97 -14 87 -12 -10 -15 -7 -19 16 -2 15 -5 -17 -6 -71 -1 -112 -11 -120 -21
-18 l-7 67 -2 -79 c0 -44 -4 -76 -8 -73 -3 4 -9 49 -13 99 l-7 93 -1 -122 c-1
-67 -7 -134 -12 -149 -6 -15 -14 -84 -17 -153 -4 -69 -9 -118 -11 -108 -5 23
-19 21 -27 -4 -5 -15 -10 -18 -15 -9 -5 8 -9 5 -13 -10 -3 -12 -10 -19 -16
-15 -6 3 -14 -1 -17 -9 -9 -23 -19 -20 -30 10 l-9 26 -32 -36 c-17 -20 -27
-36 -23 -36 5 0 12 -10 16 -22 l6 -21 13 23 13 23 6 -21 c4 -12 12 -20 17 -17
5 4 9 -1 9 -9 0 -25 16 -19 29 11 l12 27 25 -43 c13 -24 24 -47 24 -51 0 -4 7
-13 15 -20 12 -10 15 -39 15 -142 0 -81 4 -127 10 -123 5 3 12 -7 15 -22 4
-15 10 -36 16 -45 5 -10 9 -44 9 -76 0 -68 7 -80 29 -49 12 16 17 54 21 142 3
94 6 109 11 70 l6 -50 1 52 c2 57 18 80 25 36 4 -26 4 -26 6 5 1 34 15 43 25
16 3 -8 10 -13 15 -9 6 3 12 -15 14 -42 3 -42 4 -40 5 17 3 83 12 140 23 140
5 0 10 -15 10 -32 l1 -33 8 30 c6 25 8 26 9 7 2 -34 17 -18 26 25 8 36 8 37
15 13 7 -23 8 -22 10 10 1 19 4 28 7 20 4 -10 10 -4 19 20 l12 35 2 -50 2 -50
13 40 c9 28 13 33 14 18 1 -16 6 -21 16 -17 8 4 15 1 15 -6 0 -6 6 -18 14 -25
12 -12 15 -9 20 19 8 40 46 59 46 23 1 -21 1 -22 15 -3 8 11 17 34 21 52 l6
32 21 -21 c12 -12 27 -33 34 -47 l11 -25 1 25 c2 39 12 70 22 64 5 -3 10 1 10
8 4 31 17 -105 19 -192 l3 -95 9 65 c5 36 11 81 15 100 6 33 6 34 13 10 l8
-25 1 27 c1 15 6 30 11 33 6 4 10 -26 11 -82 1 -62 4 -79 9 -58 4 17 8 26 9
20 1 -5 6 -3 11 5 7 11 10 5 10 -23 0 -23 4 -36 10 -32 6 3 13 -1 16 -9 12
-31 24 -15 25 32 2 33 3 38 6 17 7 -45 23 -55 23 -15 1 33 1 34 15 16 14 -18
15 -16 15 34 0 62 7 61 19 -1 9 -44 9 -44 11 -9 2 37 28 92 45 94 5 0 13 -12
16 -29 6 -29 7 -28 8 8 0 21 5 36 10 33 5 -3 12 9 16 27 6 24 9 27 12 13 4
-15 7 -16 15 -5 7 11 11 11 15 2 7 -19 23 -16 24 5 2 29 17 -40 19 -93 2 -47
3 -48 9 -15 5 28 8 31 14 17 4 -10 7 -28 7 -40 0 -18 2 -19 10 -7 7 10 10 -30
12 -125 2 -135 2 -137 8 -50 5 79 7 83 10 35 2 -44 4 -48 7 -21 3 19 11 44 19
55 14 20 14 20 14 -6 0 -14 3 -40 7 -59 10 -52 21 -10 24 91 l3 85 6 -70 c4
-42 7 -56 9 -35 2 29 4 32 11 15 7 -17 9 -14 11 15 2 34 2 33 9 -10 6 -37 8
-26 10 55 1 55 5 89 7 75 2 -14 6 -32 9 -40 9 -27 24 11 25 65 l1 50 10 -35
c6 -19 14 -44 18 -55 5 -11 11 -27 13 -35 3 -8 6 21 8 65 1 67 3 73 9 40 4
-22 8 -31 9 -21 0 11 4 17 7 13 11 -11 34 21 36 50 1 15 4 3 8 -27 l7 -55 2
45 c3 38 4 41 11 20 7 -22 8 -21 11 15 l2 40 7 -45 c5 -35 7 -38 9 -15 1 23 3
27 11 15 8 -13 10 -12 11 5 1 14 4 10 9 -10 l8 -30 1 30 c1 23 3 27 11 15 8
-12 10 -10 11 10 1 24 1 24 7 3 7 -23 25 -20 35 7 3 8 6 0 6 -18 1 -32 21 -38
21 -6 0 9 7 22 15 30 13 14 15 13 16 -3 0 -16 1 -16 9 2 5 11 9 14 9 7 1 -7 5
-11 10 -8 5 4 12 0 14 -6 3 -7 6 1 7 17 1 26 3 27 9 10 8 -19 9 -18 13 5 l5
25 2 -25 c1 -20 3 -22 11 -10 8 12 10 12 10 -5 0 -16 2 -17 9 -6 15 23 22 -22
31 -182 4 -78 8 -114 8 -80 2 79 22 96 22 19 0 -31 4 -56 9 -56 6 0 12 -21 14
-47 2 -37 4 -29 7 32 2 44 5 65 7 48 2 -18 8 -33 14 -33 5 0 10 -15 10 -32 2
-31 2 -31 6 -5 2 15 9 27 14 27 5 0 9 20 9 45 0 63 20 56 21 -7 1 -50 2 -48
15 32 7 47 13 92 14 100 0 13 2 13 9 1 8 -12 11 -8 17 15 l8 29 7 -25 c4 -14
7 -49 8 -77 2 -85 18 -61 26 40 8 88 8 90 18 52 l10 -40 13 40 12 40 2 -60 c2
-46 4 -54 10 -35 4 14 9 50 9 80 1 39 4 51 11 40 5 -8 10 -31 11 -50 l1 -35
12 35 c13 33 14 30 20 -75 4 -60 11 -119 16 -130 5 -11 11 -31 13 -45 2 -14 6
20 8 75 2 74 4 85 6 42 2 -33 8 -55 14 -52 5 4 9 1 9 -4 0 -6 3 -11 8 -11 4 0
6 34 4 76 -3 55 -1 75 7 70 6 -4 11 -24 11 -44 l1 -37 14 25 14 25 1 -37 c0
-64 14 -79 22 -23 3 29 5 -8 4 -85 -1 -74 1 -124 5 -110 5 18 8 10 9 -30 l2
-55 13 40 13 40 4 -35 c3 -19 6 29 6 108 2 163 20 195 25 45 l3 -98 2 107 c1
70 6 108 14 110 6 2 13 30 16 61 2 32 8 59 12 62 4 3 13 -17 20 -43 16 -57 30
-76 30 -39 0 25 2 26 20 17 11 -6 20 -20 20 -30 0 -11 7 -20 15 -20 8 0 15 -6
16 -12 1 -7 5 -2 9 12 8 25 8 25 15 -7 10 -44 22 -41 36 7 7 22 18 45 26 51 7
6 13 25 13 41 0 23 4 29 15 24 8 -3 22 -9 30 -12 11 -4 15 0 15 18 0 13 9 31
20 41 11 9 20 13 20 9 0 -5 11 -14 24 -21 14 -8 29 -30 37 -55 7 -22 20 -49
28 -60 12 -14 17 -50 21 -150 5 -123 6 -128 16 -86 11 41 12 35 14 -85 l3
-130 12 80 12 80 3 -85 c2 -57 5 -72 8 -45 l5 40 13 -40 12 -40 1 45 c1 31 4
41 10 31 13 -20 18 8 25 119 11 176 20 245 33 258 7 7 13 25 13 40 0 15 5 34
10 42 7 12 10 8 10 -15 l1 -30 16 33 c22 42 33 41 34 -5 l1 -38 9 44 c11 56
19 64 19 20 0 -23 3 -30 9 -21 6 10 11 2 16 -24 9 -49 15 -60 26 -43 6 10 10
7 17 -10 7 -19 11 -21 18 -10 6 10 11 4 20 -26 8 -25 13 -32 13 -18 1 25 17
39 24 21 3 -8 6 -6 6 5 1 9 6 17 11 17 6 0 15 10 20 23 7 19 9 16 10 -18 0
-30 3 -36 10 -25 7 11 10 3 11 -30 l2 -45 7 40 c4 22 8 31 9 20 l2 -20 9 20
c5 11 9 36 9 55 1 19 6 42 11 50 7 10 10 -13 12 -75 l2 -90 6 70 c4 39 7 58 8
43 3 -38 21 -35 30 5 l7 32 6 -40 c6 -36 6 -34 9 25 l3 65 7 -55 c4 -30 7 -43
8 -29 1 15 9 32 17 39 13 11 15 6 17 -31 l1 -44 7 45 c7 44 7 44 10 10 l2 -35
11 43 10 44 13 -29 12 -28 3 40 c2 37 3 36 9 -15 l7 -55 2 50 c3 72 19 104 22
45 2 -41 3 -42 6 -10 6 49 23 63 23 19 l1 -34 14 25 14 25 2 -35 c2 -33 2 -33
6 -6 5 31 33 69 33 44 0 -10 3 -9 10 2 5 8 10 11 11 5 0 -5 5 1 9 15 7 23 8
23 10 -10 l3 -35 7 35 c5 24 8 28 9 12 1 -22 2 -22 31 -7 29 15 30 15 30 -5 0
-11 5 -20 10 -20 6 0 10 9 10 20 0 11 5 20 10 20 6 0 10 -5 10 -11 0 -5 4 -7
10 -4 6 4 10 -16 10 -52 0 -32 4 -69 7 -83 7 -23 8 -21 13 15 7 46 14 -41 27
-310 l8 -160 4 150 4 150 12 -105 c12 -101 12 -103 14 -39 0 36 4 88 8 115 l8
49 6 -45 6 -45 2 55 c1 40 4 51 11 40 8 -13 10 -13 10 1 0 9 6 19 14 22 7 3
16 24 20 46 3 23 11 64 17 92 10 45 12 49 25 32 7 -10 14 -27 15 -38 1 -11 5
-4 9 15 7 31 7 32 9 8 2 -49 21 -30 21 21 0 50 12 72 26 49 5 -7 10 -3 16 13
6 16 11 20 17 11 9 -14 41 -6 42 12 1 21 18 -29 18 -56 1 -16 6 -28 11 -28 6
0 10 -21 11 -47 0 -36 3 -43 9 -28 6 14 9 1 9 -45 1 -42 4 -60 10 -51 7 11 10
10 14 -5 4 -18 5 -18 8 1 1 11 5 -23 9 -75 l5 -95 9 75 c6 53 11 69 17 55 6
-15 8 -11 10 20 l2 40 7 -40 c6 -35 8 -30 10 35 l2 75 13 -55 c13 -58 18 -55
34 15 5 24 10 32 12 20 1 -11 5 14 9 55 l6 75 4 -105 c3 -89 4 -97 10 -55 6
45 7 47 10 15 2 -27 5 -17 15 40 l12 75 4 -95 3 -95 6 120 c5 101 6 109 9 50
3 -73 6 -72 16 8 3 26 10 45 15 42 5 -3 11 3 13 12 3 10 6 -29 8 -87 l3 -105
6 95 c3 52 8 79 9 60 l3 -35 8 30 c7 29 8 29 10 -10 6 -94 18 -100 21 -10 l3
90 6 -115 6 -115 4 130 c3 105 5 119 10 75 l7 -55 3 55 3 55 12 -60 13 -60 3
60 3 60 6 -75 6 -75 4 70 4 70 6 -95 6 -95 3 70 c2 52 5 64 11 45 7 -23 8 -23
10 10 l2 35 7 -30 c6 -27 8 -25 16 25 8 54 8 55 15 20 6 -29 8 -31 10 -10 l2
25 8 -25 c7 -21 8 -18 10 20 l3 45 7 -35 7 -35 2 30 c2 26 4 27 11 10 8 -19 9
-19 9 -1 1 26 18 9 24 -24 3 -21 5 -19 6 8 0 18 5 31 10 28 5 -4 11 0 14 6 2
7 8 -54 13 -137 6 -110 10 -138 15 -105 4 32 6 14 7 -62 1 -59 7 -119 13 -135
6 -15 15 -62 19 -103 l7 -75 3 115 3 115 8 -105 c5 -58 13 -132 17 -165 l9
-60 2 76 c0 42 4 118 9 170 l7 94 5 -125 6 -125 4 140 4 140 6 -105 c6 -96 6
-88 10 90 3 164 5 181 10 105 3 -49 7 -79 8 -65 3 24 3 24 17 6 14 -18 15 -13
16 60 1 43 4 70 7 59 4 -14 11 0 23 45 11 42 18 56 19 40 2 -23 3 -23 9 5 4
21 12 30 26 30 11 0 22 2 25 5 3 3 17 11 32 17 21 9 28 9 32 0 3 -8 5 -7 6 3
2 24 41 -158 49 -230 7 -58 9 -62 18 -40 10 22 11 19 17 -35 12 -102 13 -103
15 -13 1 108 14 146 22 68 l6 -55 2 60 c2 47 5 54 11 35 6 -19 9 -9 10 40 2
36 5 54 7 41 3 -13 11 -31 19 -38 12 -12 14 -11 15 9 1 19 3 18 9 -7 6 -24 8
-15 10 40 3 67 3 68 10 25 l7 -45 3 65 c4 63 4 62 10 -30 6 -89 6 -91 9 -30 2
47 5 59 11 45 6 -14 9 -16 11 -5 1 8 5 -5 9 -30 6 -40 7 -35 10 40 l4 85 6
-110 6 -110 4 135 4 135 6 -110 c3 -60 8 -92 10 -70 l3 40 7 -45 c6 -39 7 -35
10 40 3 75 4 79 10 40 l7 -45 3 50 3 50 7 -40 7 -40 3 40 c2 39 3 39 9 10 l7
-30 9 25 c7 24 8 24 16 5 5 -14 8 -6 10 30 1 28 4 39 6 26 3 -13 11 -31 19
-38 12 -12 14 -9 15 24 l2 38 7 -35 7 -35 3 35 c3 34 3 34 10 -10 l7 -45 3 45
c3 42 4 41 10 -20 6 -64 7 -64 8 -15 2 36 5 46 12 35 8 -12 10 -10 11 10 1 20
3 18 9 -10 5 -24 8 -28 9 -12 0 13 6 20 11 17 6 -3 10 4 10 17 l1 23 19 -24
c11 -13 20 -18 20 -12 0 7 4 10 9 6 5 -3 12 3 14 12 3 10 5 -1 6 -25 0 -24 5
-41 10 -38 8 6 19 -54 23 -123 1 -25 3 -18 8 24 5 50 7 53 8 20 2 -24 6 -35
10 -28 4 7 6 -57 4 -142 -3 -110 -1 -155 7 -155 7 0 11 38 12 118 1 78 4 105
9 82 4 -19 9 -30 10 -25 2 6 6 -10 10 -35 6 -38 8 -29 10 50 3 88 4 91 10 40
l7 -55 3 50 3 50 7 -60 c6 -58 7 -57 10 35 3 84 4 89 10 45 6 -46 7 -47 8 -12
2 39 22 53 22 15 0 -21 0 -21 15 -2 8 10 15 35 15 54 1 27 3 30 9 16 9 -24 17
-13 27 39 7 37 8 38 15 15 5 -17 7 -19 8 -7 1 10 5 16 10 13 5 -3 11 4 14 15
4 15 11 19 25 15 12 -4 26 -1 35 8 13 13 17 6 36 -57 11 -40 21 -80 21 -89 0
-9 4 -19 9 -22 4 -3 12 -47 16 -98 4 -51 11 -84 14 -73 3 11 12 21 19 23 9 1
12 -20 14 -80 1 -76 2 -78 8 -33 5 37 7 16 8 -77 2 -106 5 -128 17 -128 12 0
15 -15 16 -67 1 -65 2 -66 11 -30 6 20 14 37 19 37 5 0 10 28 10 63 2 59 2 60
10 22 5 -25 7 12 5 100 -2 77 0 149 5 160 l8 20 2 -20 c1 -11 5 -83 8 -160 l8
-140 2 190 c1 105 6 210 10 235 l8 45 3 -55 2 -55 13 40 13 40 2 -35 c2 -25 6
-13 14 40 10 67 11 70 14 33 3 -47 21 -59 23 -15 1 17 3 20 6 9 7 -28 23 -9
24 31 2 32 3 33 6 9 3 -20 9 -27 19 -23 10 4 14 -4 15 -32 2 -47 16 -108 18
-74 0 12 7 22 16 22 9 0 16 10 16 23 1 18 3 16 9 -8 l8 -30 1 33 c2 54 21 26
22 -31 0 -47 1 -50 12 -27 16 35 37 56 37 38 1 -7 7 -2 15 12 11 20 14 21 15
7 0 -10 5 -15 11 -12 6 4 13 -3 16 -16 6 -22 7 -22 14 -3 7 18 8 17 8 -3 2
-43 20 -23 24 25 3 36 4 31 5 -25 1 -39 7 -75 12 -78 6 -3 11 -16 12 -28 0
-12 4 -2 7 23 l7 45 11 -35 c6 -19 12 -27 12 -17 1 9 6 17 12 17 8 0 10 -50 6
-182 -3 -112 -2 -164 3 -133 4 28 9 87 9 132 1 90 18 122 24 46 2 -27 4 -7 5
45 1 53 6 92 12 92 6 0 11 15 11 33 l2 32 6 -35 c5 -27 8 -31 15 -20 8 11 12
8 22 -15 12 -27 13 -22 15 60 l2 90 12 -80 c10 -66 13 -73 15 -40 3 38 3 39 7
8 2 -18 8 -33 13 -33 5 0 11 -8 13 -17 3 -10 6 5 7 32 3 48 3 49 10 15 l7 -35
2 32 c0 17 6 35 11 38 6 3 10 22 10 41 0 32 1 33 20 22 14 -9 20 -24 21 -53 1
-35 2 -37 9 -15 4 14 8 20 9 13 1 -7 8 -10 16 -7 10 4 15 0 15 -16 0 -37 20
-11 21 28 l1 37 9 -40 c4 -22 9 -83 10 -135 2 -74 3 -85 8 -50 6 37 8 40 13
20 4 -18 6 -13 7 20 2 25 5 38 8 30 2 -8 8 -24 13 -35 5 -11 11 -36 13 -55 3
-25 4 -19 6 20 1 47 4 53 14 38 12 -15 14 -15 24 0 10 14 12 12 14 -18 l1 -35
10 40 c18 79 29 141 35 190 4 46 23 89 23 54 0 -12 2 -12 10 1 8 13 10 12 10
-3 0 -10 4 -16 9 -13 5 4 12 0 14 -6 3 -7 6 5 6 27 2 54 20 84 22 35 l1 -35
13 40 13 40 3 -35 2 -35 7 35 7 35 5 -35 c4 -28 5 -23 8 25 l3 60 7 -45 c4
-25 8 -35 8 -24 3 32 29 78 35 62 3 -8 6 -5 7 7 1 18 2 18 14 -4 11 -19 14
-21 19 -7 11 27 27 18 28 -16 l2 -33 4 30 c5 31 23 60 23 36 0 -7 5 -9 10 -6
6 3 10 15 10 26 0 11 4 18 9 15 5 -4 12 0 14 6 4 10 6 10 6 1 1 -20 21 -15 22
5 1 9 5 1 9 -18 5 -23 8 -27 9 -12 1 26 21 30 21 5 1 -14 4 -12 15 7 l14 25
10 -25 c9 -24 10 -24 11 10 0 19 4 30 8 24 4 -6 14 -13 23 -16 20 -8 26 -52
36 -263 4 -93 10 -143 13 -120 l5 40 8 -49 c4 -27 8 -148 9 -270 l1 -221 7
162 c6 147 11 185 25 172 2 -3 8 -41 13 -84 l9 -80 3 95 c2 92 15 230 19 200
3 -25 39 91 47 148 3 29 10 55 15 58 5 3 9 15 9 27 0 18 2 19 10 7 8 -12 10
-12 11 5 l0 20 8 -20 c7 -17 11 -13 22 25 l13 45 6 -35 6 -35 8 34 c5 22 11
29 16 21 6 -10 9 -8 13 6 3 11 5 5 7 -16 l2 -35 12 27 12 27 18 -52 c14 -37
22 -98 28 -217 9 -190 16 -250 29 -250 5 0 10 -82 11 -182 1 -166 2 -175 9
-93 4 50 15 115 23 145 l14 55 1 -45 c1 -33 4 -41 11 -30 7 11 10 1 12 -35 1
-27 5 2 8 65 l6 115 3 -110 c2 -60 6 -150 10 -200 l8 -90 3 110 c1 61 6 157
10 215 6 96 7 87 10 -105 l3 -210 8 234 c4 128 11 236 15 240 4 3 5 -91 2
-209 -3 -118 -2 -201 2 -185 4 17 8 95 10 175 1 91 5 138 10 125 6 -14 9 5 9
58 1 43 5 76 10 73 10 -7 21 16 22 47 0 14 5 8 14 -18 l13 -40 2 65 c2 87 18
125 21 50 l2 -55 8 45 c4 25 9 70 10 100 1 35 4 44 6 25 3 -16 8 -34 13 -39
11 -12 50 70 51 108 0 28 2 26 15 -16 17 -55 34 -63 34 -16 0 40 11 30 20 -19
l8 -38 1 45 c1 25 6 63 10 85 7 37 8 35 16 -40 6 -60 10 -74 16 -55 4 14 7 40
8 58 1 39 13 41 28 5 l11 -28 2 35 2 35 10 -27 c10 -30 28 -38 28 -13 0 18 20
20 21 3 0 -7 4 -4 9 7 6 15 9 5 9 -35 2 -70 11 -107 22 -88 5 7 9 28 9 47 0
19 3 31 7 27 4 -4 10 -68 13 -144 l7 -137 1 118 c1 70 6 117 12 117 6 0 10
-28 11 -62 0 -35 4 -81 8 -103 l8 -40 7 30 c13 51 14 51 16 5 l2 -45 12 50 12
50 7 -42 c7 -44 27 -60 27 -22 0 11 5 17 10 14 6 -4 10 14 11 47 1 53 25 226
28 198 1 -12 5 -11 16 4 14 19 15 18 24 -5 l10 -24 1 25 c0 20 2 22 10 10 7
-11 10 -3 11 30 2 41 3 42 6 10 6 -49 23 -63 24 -19 l1 34 8 -30 8 -30 1 33
c1 32 15 43 24 20 3 -7 6 5 8 27 2 33 3 35 6 11 6 -41 24 -58 40 -37 10 13 13
8 14 -34 1 -27 3 -42 6 -32 9 34 23 5 23 -47 0 -74 11 -147 21 -140 5 3 9 -37
10 -88 0 -51 4 -111 8 -133 l7 -40 9 45 c6 36 9 41 16 25 5 -12 8 14 9 70 1
60 5 82 10 65 4 -14 5 -122 3 -240 -3 -119 0 -240 5 -270 9 -52 10 -48 12 60
3 198 17 228 21 45 l3 -160 7 125 c3 69 10 152 15 185 l9 60 6 -100 c4 -65 5
-43 3 65 -2 91 0 181 5 200 8 32 9 29 11 -30 l3 -65 8 45 c4 25 8 66 8 92 1
26 6 50 11 53 6 3 11 32 12 63 1 35 3 45 5 25 5 -40 23 -44 24 -5 1 24 2 23
13 -11 l12 -39 12 49 c7 26 14 59 17 72 8 43 13 33 20 -38 9 -87 25 -83 25 5
0 36 4 63 9 60 5 -3 11 8 15 25 3 17 10 28 16 24 5 -3 14 9 19 27 l9 33 2 -45
3 -45 7 35 c5 28 8 31 14 18 5 -10 12 -16 16 -13 5 3 13 -3 19 -12 9 -17 11
-16 29 5 22 26 42 29 42 6 0 -8 4 -13 9 -10 5 3 12 -14 16 -39 3 -25 11 -43
16 -39 5 3 14 -8 20 -25 6 -17 15 -31 19 -31 5 0 11 -24 13 -52 3 -50 3 -49 5
14 3 93 22 99 22 7 0 -40 3 -70 6 -66 3 3 12 46 19 94 l13 88 2 -120 c2 -82 5
-109 10 -85 4 19 9 28 10 20 2 -8 6 3 11 25 4 22 6 -54 4 -170 -4 -240 8 -201
21 70 5 94 10 154 12 135 6 -65 22 -57 22 12 0 76 17 126 41 123 12 -2 19 7
23 29 5 24 9 28 16 16 9 -13 11 -13 20 0 9 13 10 13 10 0 1 -9 6 -5 15 10 l14
25 1 -25 c0 -17 3 -21 8 -12 5 7 16 10 25 6 15 -5 19 -19 30 -119 3 -19 5 -12
6 20 l3 50 11 -35 11 -35 6 45 5 45 8 -55 c4 -30 8 -100 8 -155 2 -83 3 -91 9
-50 l7 50 2 -60 c1 -43 4 -56 11 -45 7 10 10 -27 11 -115 l2 -130 8 129 c10
148 17 179 19 86 2 -52 4 -59 10 -35 6 22 8 8 10 -55 l3 -85 7 97 c3 54 9 101
13 105 4 3 7 -6 7 -20 0 -15 5 -27 10 -27 6 0 10 34 10 83 0 53 7 103 20 142
l19 60 0 -48 c1 -54 20 -57 22 -4 1 28 2 27 8 -10 10 -62 17 -61 30 6 8 43 16
59 25 55 10 -4 15 10 21 51 3 30 10 53 14 50 12 -7 31 41 32 83 1 20 3 29 6
19 3 -11 11 -16 19 -13 9 4 18 -4 25 -21 5 -14 16 -177 24 -362 18 -414 17
-401 25 -316 6 63 7 57 10 -60 3 -105 5 -119 10 -70 5 53 6 56 11 25 4 -26 6
-18 7 29 2 68 17 75 25 11 3 -25 5 -18 7 25 1 33 4 52 7 43 11 -43 22 -10 27
85 9 143 25 340 35 417 8 62 8 63 9 18 1 -27 7 -48 12 -48 6 0 10 -7 10 -16 0
-8 5 -12 10 -9 6 4 11 -8 11 -27 l2 -33 6 35 c12 67 22 11 28 -153 4 -89 7
-157 9 -152 1 6 6 63 9 128 4 66 11 115 16 110 4 -4 10 -55 12 -113 3 -97 3
-93 7 50 l4 155 6 -125 6 -125 3 115 3 115 13 -65 13 -65 2 110 3 110 10 -123
c5 -68 12 -120 16 -117 3 4 11 59 17 123 9 96 11 106 13 54 1 -71 20 -78 23
-9 l1 42 7 -45 c6 -42 7 -40 10 30 2 64 4 69 10 35 6 -40 6 -39 15 25 l9 65
12 -55 12 -55 2 85 c1 59 4 77 10 60 8 -24 8 -24 9 6 1 17 10 41 20 53 18 20
20 21 24 4 4 -15 5 -14 6 4 1 28 21 41 21 13 0 -18 3 -19 20 -10 18 9 20 8 20
-15 0 -15 4 -24 9 -21 4 3 11 -32 15 -77 9 -101 23 -208 25 -186 0 9 8 19 16
23 12 4 15 -8 17 -72 1 -47 3 -60 5 -34 2 23 8 42 14 42 5 0 9 13 9 29 0 16 3
38 7 48 6 15 8 13 13 -11 8 -47 30 -45 30 2 0 94 29 98 32 5 l2 -68 3 65 c3
45 7 60 13 50 7 -10 10 3 10 43 0 44 3 57 15 57 11 0 15 12 16 43 2 30 3 34 6
14 2 -15 8 -25 13 -22 16 10 32 -26 49 -110 9 -47 20 -82 24 -79 4 4 7 0 7
-10 0 -10 7 -24 15 -32 13 -14 15 -12 15 15 0 52 20 46 21 -6 1 -26 3 -40 6
-30 2 9 9 15 14 12 5 -4 10 33 10 87 2 71 4 84 9 53 4 -22 8 -31 9 -20 l2 20
9 -20 c6 -17 9 -13 15 20 4 22 12 43 17 46 4 3 12 32 17 65 5 35 9 46 10 28 1
-25 6 -33 25 -38 20 -5 26 -14 29 -44 3 -33 4 -31 5 12 2 53 38 136 58 136 26
0 34 -41 36 -182 1 -79 3 -118 5 -88 3 38 7 50 13 40 6 -9 9 144 8 405 -1 419
-8 466 -26 182 -9 -132 -24 -178 -37 -115 -7 29 -9 30 -16 13 -6 -15 -8 -11
-9 20 -1 22 -4 34 -7 28 -9 -24 -23 -13 -23 16 0 32 -19 54 -21 24 -1 -10 -7
5 -14 32 l-12 50 -8 -47 c-12 -76 -25 -56 -27 40 -1 48 -3 70 -5 50 -4 -40
-18 -50 -26 -20 -3 9 -5 -3 -6 -28 l-1 -45 -14 27 c-8 15 -18 58 -22 95 -6 52
-9 62 -15 43 -4 -14 -8 -20 -9 -15 -1 6 -6 -3 -10 -20 -6 -24 -8 -18 -10 35
-3 46 -5 54 -7 28 -2 -21 -8 -38 -14 -38 -5 0 -9 -17 -10 -37 0 -31 -2 -34 -9
-18 -6 15 -9 5 -9 -34 -1 -53 -13 -61 -24 -16 -3 11 -6 -25 -8 -80 l-3 -100
-6 105 -6 105 -4 -75 c-2 -55 -5 -64 -8 -35 -3 32 -6 36 -12 20 -7 -17 -9 -16
-11 10 l-2 30 -7 -35 c-6 -29 -8 -23 -9 35 l-2 70 -19 -24 c-20 -23 -20 -23
-20 -2 0 12 -4 19 -10 16 -6 -4 -10 13 -11 42 -1 26 -3 40 -6 31 -2 -10 -8
-18 -13 -18 -22 0 -30 48 -29 180 0 78 -2 145 -5 148 -3 3 -7 -60 -8 -139 -2
-136 -2 -139 -8 -54 l-6 90 -3 -90 c-3 -66 -5 -82 -11 -60 -5 21 -9 -2 -11
-75 l-3 -105 -6 110 c-6 102 -6 96 -10 -90 l-4 -200 -6 130 c-5 116 -6 121 -8
43 -2 -76 -4 -87 -21 -93 -14 -4 -21 -17 -23 -43 l-4 -37 -9 45 c-6 35 -10 40
-16 25 -6 -17 -8 -16 -8 8 -1 42 -21 22 -22 -21 l-1 -37 -9 33 c-5 18 -14 30
-19 27 -6 -4 -11 4 -11 17 -1 13 -5 6 -9 -17 l-7 -40 -2 50 c-1 33 -4 45 -10
36 -6 -9 -11 13 -16 65 -8 107 -12 127 -14 77 0 -23 -5 -45 -11 -48 -6 -4 -10
33 -11 102 0 67 -4 100 -9 88 -6 -15 -9 -6 -12 35 -3 38 -5 24 -6 -44 -2 -86
-4 -97 -17 -86 -8 7 -19 31 -23 54 -7 40 -7 40 -12 -24 -4 -50 -7 -23 -14 115
-10 191 -16 192 -35 5 l-8 -85 -3 80 c-1 44 -5 112 -9 150 l-7 70 -10 -95 c-9
-77 -12 -85 -13 -45 -1 28 -6 68 -10 90 -6 28 -9 -7 -10 -120 -1 -88 -6 -167
-11 -175 -7 -11 -10 -7 -10 17 0 39 -19 54 -27 22 -6 -23 -7 -23 -19 6 -12 27
-13 19 -15 -80 -1 -91 -3 -102 -9 -60 -4 28 -6 102 -4 165 2 74 0 104 -5 85
-6 -22 -9 3 -11 85 -2 122 -17 198 -21 105 l-2 -50 -7 40 c-7 39 -7 38 -10
-20 l-3 -60 -7 55 c-5 30 -9 177 -11 325 -1 158 -5 245 -9 210 -4 -33 -8 -55
-10 -50 -3 6 -7 -62 -10 -150 l-6 -160 -3 240 -3 240 -14 -90 c-9 -56 -15
-182 -15 -330 -1 -132 -5 -224 -9 -205 -4 19 -8 -110 -9 -287 0 -178 -5 -323
-9 -323 -5 0 -17 -9 -29 -19 -20 -19 -20 -19 -32 44 -6 35 -8 70 -5 79 3 9 1
16 -5 16 -6 0 -11 -18 -11 -42 0 -67 -19 -25 -21 47 l-2 60 -7 -50 -7 -50 -1
68 c-2 63 -15 89 -25 50 -3 -10 -5 41 -6 112 0 72 -5 135 -10 140 -5 6 -11 19
-13 30 -2 11 -8 -41 -14 -115 l-9 -135 -5 85 -4 85 -6 -100 -6 -100 -2 111
c-1 74 -7 121 -16 139 l-15 28 -4 -49 c-3 -27 -4 79 -2 234 2 156 1 282 -1
279 -3 -3 -9 -110 -14 -238 -9 -265 -26 -381 -30 -219 -3 87 -4 90 -10 40 -5
-38 -8 2 -10 125 l-3 180 -8 -199 c-5 -109 -11 -201 -14 -205 -4 -3 -4 84 0
194 8 224 -5 260 -17 47 -4 -75 -12 -207 -17 -292 -5 -85 -10 -168 -11 -185
-2 -30 -2 -30 -10 -5 -7 21 -8 22 -10 5 -2 -17 -3 -16 -10 5 -6 18 -8 6 -10
-45 l-2 -70 -15 35 c-16 35 -16 35 -24 10 -4 -14 -7 -19 -8 -12 -1 7 -5 11
-10 8 -5 -4 -12 0 -14 6 -3 7 -6 0 -7 -17 0 -16 -7 -41 -15 -55 -16 -29 -20
-22 -30 53 -8 61 -25 51 -25 -16 0 -47 -1 -49 -15 -31 -8 10 -15 28 -15 39 0
17 -2 17 -10 5 -7 -11 -10 -5 -11 25 l-2 40 -7 -35 c-13 -70 -18 -1 -23 332
-3 185 -9 344 -14 352 -4 8 -7 -85 -7 -207 1 -127 -2 -198 -6 -167 l-7 55 -2
-50 c-1 -27 -5 -44 -8 -37 -2 6 -9 10 -14 6 -5 -3 -10 14 -11 38 -2 57 -14
-63 -19 -182 l-3 -85 -6 85 c-4 51 -8 71 -10 50 -2 -19 -7 19 -10 85 l-6 120
-4 -115 -4 -115 -6 125 c-5 115 -6 108 -9 -100 -2 -124 -6 -211 -8 -195 -9 59
-23 50 -24 -15 0 -36 -3 -60 -5 -53 -3 7 -12 9 -20 6 -10 -4 -14 3 -14 27 0
28 -2 30 -15 16 -8 -8 -15 -23 -15 -33 0 -15 -2 -16 -10 -3 -8 13 -10 13 -10
-1 0 -25 -30 -18 -37 9 -8 34 -23 8 -23 -40 0 -56 -20 -46 -21 10 -1 42 -2 44
-9 17 -4 -16 -8 -23 -9 -15 -1 13 -2 13 -11 0 -8 -12 -10 -12 -10 5 0 15 -3
17 -9 7 -12 -19 -19 3 -27 83 -4 36 -11 65 -16 65 -11 0 -28 -44 -29 -78 l-1
-27 -8 25 c-4 14 -9 54 -9 90 -1 46 -4 61 -11 50 -7 -10 -10 13 -11 75 -1 113
-6 101 -14 -37 -4 -60 -11 -106 -15 -103 -5 3 -10 -14 -12 -37 -2 -24 -7 65
-12 197 -4 132 -12 278 -16 325 -7 78 -8 72 -8 -70 0 -85 -2 -175 -3 -200 l-2
-45 -7 40 c-6 36 -7 33 -10 -30 l-4 -70 -6 70 c-6 63 -7 56 -10 -60 -3 -128
-3 -129 -12 -60 -5 39 -12 201 -17 360 l-8 290 -3 -340 c-2 -285 -4 -323 -12
-235 -5 58 -12 238 -17 400 -5 178 -9 251 -11 185 -2 -82 -5 -100 -10 -70 l-7
40 -4 -55 c-2 -30 -6 51 -9 180 l-6 235 -4 -370 c-2 -203 -6 -345 -9 -315 -5
43 -7 29 -11 -70 -5 -107 -7 -87 -10 130 l-4 255 -6 -220 c-4 -121 -12 -305
-19 -409 -7 -103 -10 -195 -7 -203 3 -8 1 -11 -4 -8 -6 3 -11 25 -12 48 -1 35
-2 32 -7 -18 l-6 -60 -10 55 -9 55 -6 -65 c-4 -36 -7 -51 -9 -35 -1 25 -3 27
-12 13 -9 -16 -11 -16 -29 0 -11 9 -20 30 -21 47 l-1 30 -12 -29 c-11 -23 -14
-25 -19 -11 -4 9 -7 26 -7 36 0 11 -5 17 -10 14 -6 -3 -14 4 -19 17 -9 20 -10
20 -10 4 -1 -14 -4 -17 -11 -10 -6 6 -14 75 -18 155 l-7 144 -5 -130 -6 -130
-3 140 c-5 217 -18 226 -22 15 -1 -102 -4 -157 -6 -122 -4 60 -23 90 -23 35 0
-51 -23 -7 -30 59 l-7 63 -2 -55 c-1 -72 -19 -54 -24 25 -3 55 -3 53 -7 -25
l-3 -85 -12 130 -12 130 -3 -80 c-3 -89 -16 -223 -18 -188 -4 49 -20 28 -25
-32 -6 -65 -26 -122 -35 -97 -5 16 -22 15 -22 -2 0 -9 -8 -12 -24 -9 -19 4
-25 0 -29 -18 -3 -17 -5 -12 -6 13 -2 53 -21 58 -22 6 -1 -24 -4 -33 -6 -20
-2 12 -8 22 -13 22 -5 0 -10 30 -13 68 -5 80 -20 141 -30 126 -4 -6 -10 -45
-13 -85 -7 -73 -13 -74 -29 -4 -7 27 -8 28 -15 10 -7 -17 -9 -15 -9 10 -1 17
-5 41 -9 55 -6 21 -8 17 -13 -25 -4 -38 -6 -25 -8 55 -1 58 -6 123 -10 145
l-9 40 -3 -50 c-2 -48 -3 -48 -6 -10 -2 22 -8 49 -13 60 -5 11 -11 31 -14 45
-2 14 -3 -28 -2 -93 1 -118 -10 -162 -17 -64 -2 28 -5 -6 -7 -78 -2 -71 -5
-112 -7 -90 -3 22 -9 44 -14 50 -5 5 -9 29 -9 53 0 26 -4 41 -10 37 -7 -4 -11
106 -12 322 -2 320 -2 323 -9 133 -4 -107 -11 -217 -17 -245 l-9 -50 -3 85
c-1 47 -6 166 -9 265 l-7 180 -2 -214 c-1 -118 -5 -211 -9 -207 -5 4 -10 137
-13 294 l-6 287 -3 -315 c-1 -173 -5 -310 -7 -304 -3 7 -8 126 -13 265 l-8
254 -3 -240 c-1 -132 -4 -233 -6 -225 -3 8 -8 80 -13 160 l-8 145 -4 -195 c-3
-166 -4 -142 -9 165 -5 342 -6 348 -9 135z m2566 -282 c-1 -57 -3 -11 -3 102
0 113 2 159 3 103 2 -57 2 -149 0 -205z m40 50 c-1 -46 -3 -11 -3 77 0 88 2
125 3 83 2 -42 2 -114 0 -160z m-250 -540 c-2 -18 -4 -4 -4 32 0 36 2 50 4 33
2 -18 2 -48 0 -65z m-2080 -85 c-2 -27 -3 -5 -3 47 0 52 1 74 3 48 2 -27 2
-69 0 -95z m2670 0 c-3 -10 -5 -4 -5 12 0 17 2 24 5 18 2 -7 2 -21 0 -30z
m-5030 -620 c-2 -16 -4 -5 -4 22 0 28 2 40 4 28 2 -13 2 -35 0 -50z m-6570
-65 c-2 -24 -4 -5 -4 42 0 47 2 66 4 43 2 -24 2 -62 0 -85z m11273 -423 c-5
-11 -11 -38 -13 -60 -2 -22 -4 5 -5 60 -1 55 1 132 5 170 l8 70 7 -110 c5 -68
4 -118 -2 -130z m-33 -17 c-2 -13 -4 -5 -4 17 -1 22 1 32 4 23 2 -10 2 -28 0
-40z m-1420 -60 c-2 -13 -4 -5 -4 17 -1 22 1 32 4 23 2 -10 2 -28 0 -40z"/>
<path d="M11556 4279 c-5 -48 -6 -106 -3 -130 13 -103 25 -171 32 -177 8 -9
-1 239 -12 328 l-9 65 -8 -86z"/>
<path d="M9051 4163 c1 -95 3 -118 10 -88 11 57 11 203 -1 210 -6 4 -10 -39
-9 -122z"/>
<path d="M10154 3975 c0 -99 2 -138 3 -87 2 51 2 132 0 180 -1 48 -3 6 -3 -93z"/>
<path d="M11154 4030 c0 -63 1 -89 3 -57 2 31 2 83 0 115 -2 31 -3 5 -3 -58z"/>
<path d="M8564 4010 c0 -52 1 -74 3 -47 2 26 2 68 0 95 -2 26 -3 4 -3 -48z"/>
<path d="M11193 3985 c0 -22 2 -30 4 -17 2 12 2 30 0 40 -3 9 -5 -1 -4 -23z"/>
<path d="M9672 3905 c0 -16 2 -22 5 -12 2 9 2 23 0 30 -3 6 -5 -1 -5 -18z"/>
<path d="M8632 3770 c0 -74 3 -144 8 -155 11 -25 11 131 0 225 -6 54 -7 42 -8
-70z"/>
<path d="M11213 3760 c0 -30 2 -43 4 -27 2 15 2 39 0 55 -2 15 -4 2 -4 -28z"/>
<path d="M11032 3755 c0 -16 2 -22 5 -12 2 9 2 23 0 30 -3 6 -5 -1 -5 -18z"/>
<path d="M6374 3595 c0 -77 2 -107 3 -67 2 40 2 103 0 140 -2 37 -3 4 -3 -73z"/>
<path d="M10301 3614 c0 -11 3 -14 6 -6 3 7 2 16 -1 19 -3 4 -6 -2 -5 -13z"/>
<path d="M11631 3614 c0 -11 3 -14 6 -6 3 7 2 16 -1 19 -3 4 -6 -2 -5 -13z"/>
<path d="M4853 3380 c0 -30 2 -43 4 -27 2 15 2 39 0 55 -2 15 -4 2 -4 -28z"/>
<path d="M4332 2740 c0 -14 2 -19 5 -12 2 6 2 18 0 25 -3 6 -5 1 -5 -13z"/>
<path d="M1012 2680 c0 -14 2 -19 5 -12 2 6 2 18 0 25 -3 6 -5 1 -5 -13z"/>
<path d="M4253 2415 c0 -27 2 -38 4 -22 2 15 2 37 0 50 -2 12 -4 0 -4 -28z"/>
<path d="M352 2335 c0 -16 2 -22 5 -12 2 9 2 23 0 30 -3 6 -5 -1 -5 -18z"/>
<path d="M10043 2240 c0 -36 2 -50 4 -32 2 17 2 47 0 65 -2 17 -4 3 -4 -33z"/>
</g>
</svg>
